<svg xmlns="http://www.w3.org/2000/svg" width="291" height="280" viewBox="0 0 291 280">
<g>
<path d="M 66.70 186.50 C65.52,187.33 64.25,188.00 63.88,188.00 C62.72,188.00 58.59,176.50 48.08,144.00 C29.92,87.84 28.87,84.96 24.27,78.22 C19.27,70.91 19.60,70.45 29.38,71.24 C40.07,72.10 48.27,77.10 52.74,85.50 C53.62,87.15 56.68,95.60 59.55,104.29 C62.42,112.97 65.11,120.08 65.52,120.09 C66.35,120.09 67.36,117.23 74.95,93.25 L 80.09 77.00 L 84.23 77.00 C90.39,77.00 96.19,80.23 99.06,85.25 C100.40,87.59 105.65,101.84 110.73,116.93 C119.41,142.73 121.20,147.13 122.50,145.83 C122.79,145.54 127.22,131.40 132.35,114.40 C137.47,97.41 142.66,81.57 143.88,79.20 C149.18,68.90 159.07,61.98 168.45,62.02 L 173.50 62.04 L 168.07 65.21 C165.08,66.95 159.88,71.11 156.52,74.44 C150.79,80.12 150.18,81.18 146.77,91.50 C144.77,97.55 140.89,110.15 138.15,119.50 C135.41,128.85 131.75,141.23 130.00,147.00 C123.61,168.21 123.00,170.36 123.00,171.80 C123.00,174.94 109.81,170.76 105.82,166.35 C103.21,163.47 99.94,155.77 94.50,139.74 C91.75,131.63 89.28,125.00 89.00,125.00 C88.72,125.01 84.08,138.51 78.67,155.00 C71.32,177.43 68.30,185.38 66.70,186.50 ZM 156.96 274.02 C152.19,276.45 142.83,276.62 138.50,274.35 C136.85,273.48 133.92,271.26 132.00,269.42 C129.81,267.34 126.04,265.29 122.00,264.00 C93.05,254.74 58.70,251.01 30.09,254.03 C24.92,254.57 20.48,254.81 20.23,254.56 C19.98,254.32 21.58,247.22 23.79,238.81 C25.99,230.39 29.45,217.20 31.46,209.50 C33.48,201.80 35.57,193.81 36.11,191.75 C36.87,188.79 37.84,187.68 40.66,186.50 C42.63,185.67 44.36,185.00 44.49,185.00 C44.84,185.00 42.78,193.49 39.05,207.50 C33.56,228.07 30.17,241.41 29.83,243.75 L 29.50 246.01 L 52.50 246.34 C81.53,246.75 98.50,249.52 126.50,258.41 C132.88,260.44 135.06,261.66 137.27,264.44 C142.68,271.27 152.15,271.28 157.77,264.46 C161.60,259.82 168.27,257.45 193.00,251.97 C212.20,247.70 227.85,246.00 247.80,246.00 L 265.16 246.00 L 264.47 242.75 C264.10,240.96 262.26,233.88 260.39,227.01 C258.53,220.14 257.00,213.58 257.00,212.44 C257.00,209.85 260.05,200.72 260.70,201.37 C260.96,201.63 262.89,208.74 265.00,217.17 C267.10,225.60 269.95,236.32 271.32,241.00 C274.98,253.45 275.04,254.55 272.00,254.26 C270.62,254.13 262.08,253.73 253.00,253.38 C226.01,252.32 200.49,255.67 173.65,263.79 C166.82,265.86 164.35,267.11 162.82,269.26 C161.72,270.79 159.09,272.94 156.96,274.02 ZM 128.61 96.00 C127.21,100.68 124.57,109.45 122.74,115.50 C119.33,126.80 118.99,127.06 116.56,120.16 C115.23,116.39 115.37,115.52 119.66,101.35 C128.75,71.30 129.64,69.45 140.25,58.24 C150.19,47.73 151.36,44.57 151.44,28.00 L 151.50 14.50 L 143.50 14.50 L 142.90 28.28 C142.32,41.68 142.22,42.16 139.31,45.78 C134.33,51.97 132.50,52.46 113.25,52.81 L 96.00 53.13 L 96.00 46.00 L 111.43 46.00 C119.92,46.00 128.02,45.56 129.43,45.02 C130.84,44.49 132.90,42.58 134.00,40.77 C135.75,37.90 135.99,35.73 136.00,22.90 L 136.00 8.29 L 143.18 7.69 C147.12,7.36 152.34,7.36 154.77,7.69 L 159.19 8.30 L 158.82 25.90 C158.46,42.66 158.31,43.77 155.71,49.13 C154.20,52.23 149.62,58.39 145.53,62.83 C136.03,73.15 134.67,75.82 128.61,96.00 ZM 212.75 207.24 C211.72,208.58 208.94,208.92 197.00,209.18 C189.02,209.36 180.93,209.27 179.00,209.00 L 175.50 208.50 L 175.50 191.50 C175.50,175.26 175.59,174.49 177.50,174.21 C178.79,174.03 179.85,174.73 180.50,176.21 C181.85,179.30 186.14,179.32 187.49,176.25 C188.36,174.27 189.20,174.00 194.67,174.00 C200.33,174.00 200.89,174.19 201.18,176.25 C201.41,177.90 202.17,178.50 204.00,178.50 C205.63,178.50 206.84,177.72 207.49,176.25 C208.63,173.64 212.48,173.20 213.39,175.58 C214.60,178.73 214.06,205.54 212.75,207.24 ZM 178.37 206.25 C178.99,206.66 186.48,206.89 195.00,206.75 L 210.50 206.50 L 211.06 183.00 L 177.50 183.00 L 177.37 194.25 C177.29,201.63 177.63,205.76 178.37,206.25 ZM 64.81 171.46 C65.13,171.99 66.02,170.87 66.81,168.96 C68.39,165.11 67.99,152.36 66.15,148.00 C65.26,145.89 53.11,108.04 49.78,97.00 C47.23,88.51 42.33,82.19 36.64,80.04 C34.08,79.08 33.85,79.15 34.48,80.73 C37.32,87.80 41.25,98.83 43.47,106.00 C48.59,122.48 64.25,170.51 64.81,171.46 ZM 113.97 163.67 C116.94,165.15 117.14,164.99 118.70,159.70 C119.85,155.79 119.77,155.37 117.44,152.94 C114.41,149.77 111.03,141.13 102.95,115.88 C96.21,94.81 93.25,87.99 89.80,85.57 C86.40,83.19 85.19,83.64 84.07,87.72 C83.15,91.04 83.33,91.87 85.70,95.29 C87.21,97.47 92.36,111.01 97.60,126.55 C107.44,155.77 110.07,161.73 113.97,163.67 ZM 71.65 141.76 C72.56,144.14 73.63,145.73 74.02,145.30 C74.41,144.86 77.08,137.32 79.94,128.54 C84.84,113.50 85.07,112.33 83.95,108.31 C82.61,103.52 80.35,100.89 79.52,103.14 C76.10,112.38 70.00,132.63 70.00,134.72 C70.00,136.21 70.74,139.38 71.65,141.76 ZM 197.00 199.50 C197.00,201.45 196.49,202.00 194.67,202.00 C191.85,202.00 191.00,201.26 191.00,198.83 C191.00,197.46 191.76,197.00 194.00,197.00 C196.53,197.00 197.00,197.39 197.00,199.50 ZM 206.39 191.42 C206.06,192.29 204.71,193.00 203.39,193.00 C201.51,193.00 201.00,192.47 201.00,190.50 C201.00,188.39 201.47,188.00 204.00,188.00 C207.05,188.00 207.47,188.60 206.39,191.42 ZM 187.24 199.50 C186.89,201.33 186.13,202.00 184.38,202.00 C182.51,202.00 182.00,201.47 182.00,199.50 C182.00,197.42 182.48,197.00 184.86,197.00 C187.37,197.00 187.66,197.30 187.24,199.50 ZM 185.81 173.17 C185.30,178.41 182.00,178.11 182.00,172.83 C182.00,170.64 182.46,170.00 184.06,170.00 C185.78,170.00 186.07,170.53 185.81,173.17 ZM 197.00 190.50 C197.00,192.50 196.50,193.00 194.50,193.00 C192.50,193.00 192.00,192.50 192.00,190.50 C192.00,188.50 192.50,188.00 194.50,188.00 C196.50,188.00 197.00,188.50 197.00,190.50 ZM 206.00 173.50 C206.00,175.94 205.55,177.00 204.50,177.00 C203.45,177.00 203.00,175.94 203.00,173.50 C203.00,171.06 203.45,170.00 204.50,170.00 C205.55,170.00 206.00,171.06 206.00,173.50 Z" fill="rgb(56,117,152)"/>
<path d="M 149.66 262.52 C148.50,263.34 147.32,263.92 147.03,263.83 C146.74,263.74 141.02,260.88 134.32,257.47 C110.14,245.18 86.11,240.00 53.29,240.00 C44.33,240.00 36.99,239.66 36.99,239.25 C36.96,237.55 52.34,177.44 52.99,176.70 C53.38,176.27 54.50,178.03 55.49,180.62 L 57.29 185.34 L 51.51 208.20 C48.33,220.78 46.05,231.39 46.45,231.78 C46.84,232.17 51.96,232.57 57.83,232.67 C82.73,233.07 109.76,239.29 129.10,249.05 C132.46,250.74 135.42,251.92 135.68,251.66 C136.56,250.78 125.58,243.22 117.50,239.15 C103.30,231.98 80.70,227.02 62.25,227.01 C61.77,227.01 61.31,227.01 60.88,227.01 C56.60,227.01 54.36,227.02 53.51,225.93 C52.57,224.74 53.32,222.23 54.89,216.96 C55.03,216.47 55.18,215.96 55.34,215.43 C56.63,211.07 58.25,204.75 58.95,201.38 C60.54,193.70 61.03,192.93 63.88,193.68 C66.06,194.25 66.16,194.60 65.50,199.89 C65.12,202.98 64.18,207.30 63.42,209.50 C61.58,214.78 61.57,220.00 63.39,220.00 C69.95,220.00 87.61,222.61 97.00,224.96 C116.42,229.82 129.86,236.54 141.55,247.22 L 146.92 252.13 L 154.71 245.46 C165.28,236.42 182.05,228.28 198.98,223.98 C213.56,220.27 218.91,217.76 224.78,211.91 C232.51,204.19 235.07,189.29 230.54,178.45 C227.50,171.16 218.80,165.26 200.27,157.91 C162.54,142.95 149.97,129.51 151.27,105.50 C152.06,90.73 157.66,79.54 168.26,71.50 C192.19,53.36 227.82,60.08 243.27,85.65 C247.52,92.68 250.00,100.63 250.00,107.21 L 250.00 112.07 L 238.76 111.78 L 227.52 111.50 L 226.85 107.00 C225.40,97.31 220.44,90.49 212.01,86.59 C208.50,84.96 205.60,84.51 198.93,84.56 C190.65,84.62 190.14,84.76 184.43,88.56 C180.45,91.20 177.86,93.80 176.56,96.47 C174.14,101.43 173.40,109.66 174.96,114.36 C177.20,121.17 186.40,127.34 206.40,135.45 C224.81,142.93 234.64,148.51 242.33,155.88 C253.09,166.16 258.22,184.31 254.89,200.20 C253.30,207.77 247.90,219.00 243.52,223.85 C240.09,227.64 239.34,228.00 234.88,228.00 C232.20,228.00 230.00,227.88 230.00,227.73 C230.00,227.59 232.71,224.62 236.02,221.14 C242.52,214.31 244.41,211.28 246.51,204.30 C251.74,186.94 247.55,170.04 235.30,159.04 C229.02,153.41 217.05,147.14 198.00,139.50 C184.27,134.00 179.26,131.18 174.38,126.22 C168.90,120.64 167.04,115.78 167.04,107.00 C167.04,97.70 169.09,92.79 175.70,86.25 C191.31,70.80 222.06,75.95 230.94,95.50 C231.94,97.70 233.05,100.46 233.41,101.64 C234.08,103.83 238.14,105.27 240.79,104.25 C242.71,103.51 241.84,98.52 238.57,91.37 C234.85,83.25 226.91,75.99 217.30,71.93 C210.47,69.04 208.38,68.63 200.50,68.59 C178.74,68.49 163.14,80.44 159.02,100.38 C155.91,115.43 162.62,129.49 177.62,139.35 C179.75,140.75 189.52,145.31 199.31,149.48 C220.87,158.65 226.75,161.88 231.55,167.19 C237.82,174.13 239.50,179.05 239.50,190.50 C239.50,199.61 239.22,201.08 236.40,207.05 C234.69,210.65 231.89,215.19 230.18,217.14 C225.88,222.04 216.87,226.59 206.68,229.01 C187.45,233.58 174.62,239.01 163.25,247.39 C154.04,254.18 155.21,254.52 166.53,248.35 C182.10,239.85 213.07,233.03 236.17,233.01 C246.96,233.00 247.99,232.62 248.03,228.64 C248.07,225.63 251.46,220.13 252.59,221.26 C253.23,221.90 257.00,236.66 257.00,238.53 C257.00,239.51 253.21,239.82 240.75,239.88 C225.73,239.95 210.53,241.37 197.00,243.98 C184.85,246.33 157.49,257.04 149.66,262.52 ZM 183.00 223.10 C183.00,223.43 181.27,224.38 179.16,225.21 C175.68,226.57 175.01,226.56 172.09,225.05 C162.78,220.23 153.90,206.92 152.03,195.00 C150.93,187.94 150.79,145.77 151.85,137.24 L 152.50 131.97 L 155.50 135.74 L 158.50 139.50 L 159.50 198.50 L 162.29 203.79 C166.17,211.16 171.09,216.28 177.51,219.63 C180.53,221.21 183.00,222.77 183.00,223.10 ZM 143.00 180.50 C143.00,212.19 142.61,238.00 142.13,238.00 C141.66,238.00 140.08,237.07 138.63,235.93 L 136.00 233.85 L 136.00 142.42 L 139.04 132.71 C140.70,127.37 142.28,123.00 142.54,123.00 C142.79,123.00 143.00,148.88 143.00,180.50 ZM 88.60 206.60 C85.73,209.47 84.49,210.00 80.67,210.00 C75.36,210.00 73.00,208.14 73.00,203.94 C73.00,199.25 77.61,194.91 83.28,194.27 L 88.00 193.74 L 88.00 176.37 C88.00,159.67 88.08,159.00 90.00,159.00 C91.10,159.00 92.00,159.65 92.00,160.44 C92.00,161.23 95.14,165.26 98.97,169.40 C102.80,173.53 106.23,178.08 106.59,179.51 C107.48,183.05 106.40,189.03 104.53,190.90 C103.16,192.27 103.00,191.94 103.00,187.60 C103.00,183.32 102.56,182.32 99.12,178.88 C92.46,172.23 92.00,172.89 92.00,189.10 L 92.00 203.20 ZM 96.00 51.49 L 96.00 53.13 L 113.25 52.81 C124.44,52.61 129.74,52.36 133.20,50.97 C130.03,52.29 125.49,52.62 116.75,52.83 L 103.00 53.15 L 103.00 60.95 L 116.86 61.22 L 130.72 61.50 L 128.35 65.25 L 125.97 69.00 L 111.09 69.00 C100.11,69.00 96.09,68.67 95.74,67.75 C95.48,67.06 95.49,61.89 95.77,56.25 ZM 198.83 53.15 C198.58,54.96 197.78,55.57 195.38,55.80 C193.19,56.02 192.06,55.61 191.61,54.43 C191.04,52.94 189.25,52.81 175.15,53.16 L 159.33 53.57 L 160.82 49.78 L 162.30 46.00 L 197.96 46.00 L 198.56 48.40 C198.89,49.72 199.02,51.85 198.83,53.15 Z" fill="rgb(188,163,109)"/>
<path d="M 0.00 140.00 L 0.00 0.00 L 145.50 0.00 L 291.00 0.00 L 291.00 140.00 L 291.00 280.00 L 145.50 280.00 L 0.00 280.00 L 0.00 140.00 ZM 156.96 274.02 C159.09,272.94 161.72,270.79 162.82,269.26 C164.35,267.11 166.82,265.86 173.65,263.79 C200.49,255.67 226.01,252.32 253.00,253.38 C262.08,253.73 270.62,254.13 272.00,254.26 C275.04,254.55 274.98,253.45 271.32,241.00 C269.95,236.32 267.10,225.60 265.00,217.17 C262.89,208.74 260.96,201.63 260.70,201.37 C260.05,200.72 257.00,209.85 257.00,212.44 C257.00,213.58 258.53,220.14 260.39,227.01 C262.26,233.88 264.10,240.96 264.47,242.75 L 265.16 246.00 L 247.80 246.00 C227.85,246.00 212.20,247.70 193.00,251.97 C168.27,257.45 161.60,259.82 157.77,264.46 C152.15,271.28 142.68,271.27 137.27,264.44 C135.06,261.66 132.88,260.44 126.50,258.41 C98.50,249.52 81.53,246.75 52.50,246.34 L 29.50 246.01 L 29.83 243.75 C30.17,241.41 33.56,228.07 39.05,207.50 C42.78,193.49 44.84,185.00 44.49,185.00 C44.36,185.00 42.63,185.67 40.66,186.50 C37.84,187.68 36.87,188.79 36.11,191.75 C35.57,193.81 33.48,201.80 31.46,209.50 C29.45,217.20 25.99,230.39 23.79,238.81 C21.58,247.22 19.98,254.32 20.23,254.56 C20.48,254.81 24.92,254.57 30.09,254.03 C58.70,251.01 93.05,254.74 122.00,264.00 C126.04,265.29 129.81,267.34 132.00,269.42 C133.92,271.26 136.85,273.48 138.50,274.35 C142.83,276.62 152.19,276.45 156.96,274.02 ZM 149.66 262.52 C157.49,257.04 184.85,246.33 197.00,243.98 C210.53,241.37 225.73,239.95 240.75,239.88 C253.21,239.82 257.00,239.51 257.00,238.53 C257.00,236.66 253.23,221.90 252.59,221.26 C251.46,220.13 248.07,225.63 248.03,228.64 C247.99,232.62 246.96,233.00 236.17,233.01 C213.07,233.03 182.10,239.85 166.53,248.35 C155.21,254.52 154.04,254.18 163.25,247.39 C174.62,239.01 187.45,233.58 206.68,229.01 C216.87,226.59 225.88,222.04 230.18,217.14 C231.89,215.19 234.69,210.65 236.40,207.05 C239.22,201.08 239.50,199.61 239.50,190.50 C239.50,179.05 237.82,174.13 231.55,167.19 C226.75,161.88 220.87,158.65 199.31,149.48 C189.52,145.31 179.75,140.75 177.62,139.35 C162.62,129.49 155.91,115.43 159.02,100.38 C163.14,80.44 178.74,68.49 200.50,68.59 C208.38,68.63 210.47,69.04 217.30,71.93 C226.91,75.99 234.85,83.25 238.57,91.37 C241.84,98.52 242.71,103.51 240.79,104.25 C238.14,105.27 234.08,103.83 233.41,101.64 C233.05,100.46 231.94,97.70 230.94,95.50 C222.06,75.95 191.31,70.80 175.70,86.25 C169.09,92.79 167.04,97.70 167.04,107.00 C167.04,115.78 168.90,120.64 174.38,126.22 C179.26,131.18 184.27,134.00 198.00,139.50 C217.05,147.14 229.02,153.41 235.30,159.04 C247.55,170.04 251.74,186.94 246.51,204.30 C244.41,211.28 242.52,214.31 236.02,221.14 C232.71,224.62 230.00,227.59 230.00,227.73 C230.00,227.88 232.20,228.00 234.88,228.00 C239.34,228.00 240.09,227.64 243.52,223.85 C247.90,219.00 253.30,207.77 254.89,200.20 C258.22,184.31 253.09,166.16 242.33,155.88 C234.64,148.51 224.81,142.93 206.40,135.45 C186.40,127.34 177.20,121.17 174.96,114.36 C173.40,109.66 174.14,101.43 176.56,96.47 C177.86,93.80 180.45,91.20 184.43,88.56 C190.14,84.76 190.65,84.62 198.93,84.56 C205.60,84.51 208.50,84.96 212.01,86.59 C220.44,90.49 225.40,97.31 226.85,107.00 L 227.52 111.50 L 238.76 111.78 L 250.00 112.07 L 250.00 107.21 C250.00,100.63 247.52,92.68 243.27,85.65 C227.82,60.08 192.19,53.36 168.26,71.50 C157.66,79.54 152.06,90.73 151.27,105.50 C149.97,129.51 162.54,142.95 200.27,157.91 C218.80,165.26 227.50,171.16 230.54,178.45 C235.07,189.29 232.51,204.19 224.78,211.91 C218.91,217.76 213.56,220.27 198.98,223.98 C182.05,228.28 165.28,236.42 154.71,245.46 L 146.92 252.13 L 141.55 247.22 C129.86,236.54 116.42,229.82 97.00,224.96 C87.61,222.61 69.95,220.00 63.39,220.00 C61.57,220.00 61.58,214.78 63.42,209.50 C64.18,207.30 65.12,202.98 65.50,199.89 C66.16,194.60 66.06,194.25 63.88,193.68 C61.03,192.93 60.54,193.70 58.95,201.38 C58.25,204.75 56.63,211.07 55.34,215.43 C51.76,227.56 51.42,227.00 62.25,227.01 C80.70,227.02 103.30,231.98 117.50,239.15 C125.58,243.22 136.56,250.78 135.68,251.66 C135.42,251.92 132.46,250.74 129.10,249.05 C109.76,239.29 82.73,233.07 57.83,232.67 C51.96,232.57 46.84,232.17 46.45,231.78 C46.05,231.39 48.33,220.78 51.51,208.20 L 57.29 185.34 L 55.49 180.62 C54.50,178.03 53.38,176.27 52.99,176.70 C52.34,177.44 36.96,237.55 36.99,239.25 C36.99,239.66 44.33,240.00 53.29,240.00 C86.11,240.00 110.14,245.18 134.32,257.47 C141.02,260.88 146.74,263.74 147.03,263.83 C147.32,263.92 148.50,263.34 149.66,262.52 ZM 143.00 180.50 C143.00,148.88 142.79,123.00 142.54,123.00 C142.28,123.00 140.70,127.37 139.04,132.71 L 136.00 142.42 L 136.00 188.14 L 136.00 233.85 L 138.63 235.93 C140.08,237.07 141.66,238.00 142.13,238.00 C142.61,238.00 143.00,212.19 143.00,180.50 ZM 183.00 223.10 C183.00,222.77 180.53,221.21 177.51,219.63 C171.09,216.28 166.17,211.16 162.29,203.79 L 159.50 198.50 L 159.00 169.00 L 158.50 139.50 L 155.50 135.74 L 152.50 131.97 L 151.85 137.24 C150.79,145.77 150.93,187.94 152.03,195.00 C153.90,206.92 162.78,220.23 172.09,225.05 C175.01,226.56 175.68,226.57 179.16,225.21 C181.27,224.38 183.00,223.43 183.00,223.10 ZM 88.60 206.60 L 92.00 203.20 L 92.00 189.10 C92.00,172.89 92.46,172.23 99.12,178.88 C102.56,182.32 103.00,183.32 103.00,187.60 C103.00,191.94 103.16,192.27 104.53,190.90 C106.40,189.03 107.48,183.05 106.59,179.51 C106.23,178.08 102.80,173.53 98.97,169.40 C95.14,165.26 92.00,161.23 92.00,160.44 C92.00,159.65 91.10,159.00 90.00,159.00 C88.08,159.00 88.00,159.67 88.00,176.37 L 88.00 193.74 L 83.28 194.27 C77.61,194.91 73.00,199.25 73.00,203.94 C73.00,208.14 75.36,210.00 80.67,210.00 C84.49,210.00 85.73,209.47 88.60,206.60 ZM 212.75 207.24 C214.06,205.54 214.60,178.73 213.39,175.58 C212.48,173.20 208.63,173.64 207.49,176.25 C206.84,177.72 205.63,178.50 204.00,178.50 C202.17,178.50 201.41,177.90 201.18,176.25 C200.89,174.19 200.33,174.00 194.67,174.00 C189.20,174.00 188.36,174.27 187.49,176.25 C186.14,179.32 181.85,179.30 180.50,176.21 C179.85,174.73 178.79,174.03 177.50,174.21 C175.59,174.49 175.50,175.26 175.50,191.50 L 175.50 208.50 L 179.00 209.00 C180.93,209.27 189.02,209.36 197.00,209.18 C208.94,208.92 211.72,208.58 212.75,207.24 ZM 66.70 186.50 C68.30,185.38 71.32,177.43 78.67,155.00 C84.08,138.51 88.72,125.01 89.00,125.00 C89.28,125.00 91.75,131.63 94.50,139.74 C99.94,155.77 103.21,163.47 105.82,166.35 C109.81,170.76 123.00,174.94 123.00,171.80 C123.00,170.36 123.61,168.21 130.00,147.00 C131.75,141.23 135.41,128.85 138.15,119.50 C140.89,110.15 144.77,97.55 146.77,91.50 C150.18,81.18 150.79,80.12 156.52,74.44 C159.88,71.11 165.08,66.95 168.07,65.21 L 173.50 62.04 L 168.45 62.02 C159.07,61.98 149.18,68.90 143.88,79.20 C142.66,81.57 137.47,97.41 132.35,114.40 C127.22,131.40 122.79,145.54 122.50,145.83 C121.20,147.13 119.41,142.73 110.73,116.93 C105.65,101.84 100.40,87.59 99.06,85.25 C96.19,80.23 90.39,77.00 84.23,77.00 L 80.09 77.00 L 74.95 93.25 C67.36,117.23 66.35,120.09 65.52,120.09 C65.11,120.08 62.42,112.97 59.55,104.29 C56.68,95.60 53.62,87.15 52.74,85.50 C48.27,77.10 40.07,72.10 29.38,71.24 C19.60,70.45 19.27,70.91 24.27,78.22 C28.87,84.96 29.92,87.84 48.08,144.00 C58.59,176.50 62.72,188.00 63.88,188.00 C64.25,188.00 65.52,187.33 66.70,186.50 ZM 185.81 173.17 C186.07,170.53 185.78,170.00 184.06,170.00 C182.46,170.00 182.00,170.64 182.00,172.83 C182.00,178.11 185.30,178.41 185.81,173.17 ZM 206.00 173.50 C206.00,171.06 205.55,170.00 204.50,170.00 C203.45,170.00 203.00,171.06 203.00,173.50 C203.00,175.94 203.45,177.00 204.50,177.00 C205.55,177.00 206.00,175.94 206.00,173.50 ZM 128.61 96.00 C134.67,75.82 136.03,73.15 145.53,62.83 C149.62,58.39 154.20,52.23 155.71,49.13 C158.31,43.77 158.46,42.66 158.82,25.90 L 159.19 8.30 L 154.77 7.69 C152.34,7.36 147.12,7.36 143.18,7.69 L 136.00 8.29 L 136.00 22.90 C135.99,35.73 135.75,37.90 134.00,40.77 C132.90,42.58 130.84,44.49 129.43,45.02 C128.02,45.56 119.98,46.00 111.57,46.00 L 96.27 46.00 L 95.77 56.25 C95.49,61.89 95.48,67.06 95.74,67.75 C96.09,68.67 100.11,69.00 111.09,69.00 L 125.97 69.00 L 128.35 65.25 L 130.72 61.50 L 116.86 61.22 L 103.00 60.95 L 103.00 57.05 L 103.00 53.15 L 116.75 52.83 C132.18,52.46 134.53,51.73 139.31,45.78 C142.22,42.16 142.32,41.68 142.90,28.28 L 143.50 14.50 L 147.50 14.50 L 151.50 14.50 L 151.44 28.00 C151.36,44.57 150.19,47.73 140.25,58.24 C129.64,69.45 128.75,71.30 119.66,101.35 C115.37,115.52 115.23,116.39 116.56,120.16 C118.99,127.06 119.33,126.80 122.74,115.50 C124.57,109.45 127.21,100.68 128.61,96.00 ZM 198.83 53.15 C199.02,51.85 198.89,49.72 198.56,48.40 L 197.96 46.00 L 180.13 46.00 L 162.30 46.00 L 160.82 49.78 L 159.33 53.57 L 175.15 53.16 C189.25,52.81 191.04,52.94 191.61,54.43 C192.06,55.61 193.19,56.02 195.38,55.80 C197.78,55.57 198.58,54.96 198.83,53.15 ZM 178.37 206.25 C177.63,205.76 177.29,201.63 177.37,194.25 L 177.50 183.00 L 194.28 183.00 L 211.06 183.00 L 210.78 194.75 L 210.50 206.50 L 195.00 206.75 C186.48,206.89 178.99,206.66 178.37,206.25 ZM 187.24 199.50 C187.66,197.30 187.37,197.00 184.86,197.00 C182.48,197.00 182.00,197.42 182.00,199.50 C182.00,201.47 182.51,202.00 184.38,202.00 C186.13,202.00 186.89,201.33 187.24,199.50 ZM 197.00 199.50 C197.00,197.39 196.53,197.00 194.00,197.00 C191.76,197.00 191.00,197.46 191.00,198.83 C191.00,201.26 191.85,202.00 194.67,202.00 C196.49,202.00 197.00,201.45 197.00,199.50 ZM 197.00 190.50 C197.00,188.50 196.50,188.00 194.50,188.00 C192.50,188.00 192.00,188.50 192.00,190.50 C192.00,192.50 192.50,193.00 194.50,193.00 C196.50,193.00 197.00,192.50 197.00,190.50 ZM 206.39 191.42 C207.47,188.60 207.05,188.00 204.00,188.00 C201.47,188.00 201.00,188.39 201.00,190.50 C201.00,192.47 201.51,193.00 203.39,193.00 C204.71,193.00 206.06,192.29 206.39,191.42 ZM 64.81 171.46 C64.25,170.51 48.59,122.48 43.47,106.00 C41.25,98.83 37.32,87.80 34.48,80.73 C33.85,79.15 34.08,79.08 36.64,80.04 C42.33,82.19 47.23,88.51 49.78,97.00 C53.11,108.04 65.26,145.89 66.15,148.00 C67.99,152.36 68.39,165.11 66.81,168.96 C66.02,170.87 65.13,171.99 64.81,171.46 ZM 113.97 163.67 C110.07,161.73 107.44,155.77 97.60,126.55 C92.36,111.01 87.21,97.47 85.70,95.29 C83.33,91.87 83.15,91.04 84.07,87.72 C85.19,83.64 86.40,83.19 89.80,85.57 C93.25,87.99 96.21,94.81 102.95,115.88 C111.03,141.13 114.41,149.77 117.44,152.94 C119.77,155.37 119.85,155.79 118.70,159.70 C117.14,164.99 116.94,165.15 113.97,163.67 ZM 71.65 141.76 C70.74,139.38 70.00,136.21 70.00,134.72 C70.00,132.63 76.10,112.38 79.52,103.14 C80.35,100.89 82.61,103.52 83.95,108.31 C85.07,112.33 84.84,113.50 79.94,128.54 C77.08,137.32 74.41,144.86 74.02,145.30 C73.63,145.73 72.56,144.14 71.65,141.76 Z" fill="rgb(252,252,251)"/>
</g>
</svg>